<?xml version="1.0" standalone="no"?><!DOCTYPE svg PUBLIC "-//W3C//DTD SVG 1.1//EN" "http://www.w3.org/Graphics/SVG/1.1/DTD/svg11.dtd"><svg t="1689058210796" class="icon" viewBox="0 0 1024 1024" version="1.1" xmlns="http://www.w3.org/2000/svg" p-id="5827" xmlns:xlink="http://www.w3.org/1999/xlink" width="200" height="200"><path d="M0 0h1024v1024H0z" fill="#000000" fill-opacity="0" p-id="5828"></path><path d="M960 421.056c-86.912 0-173.76-25.984-244.352-78.016v353.472C715.648 873.28 574.464 1024 389.76 1024 205.184 1024 64 878.464 64 696.512c0-181.888 141.184-327.488 325.76-327.488 16.32 0 38.08 0 54.4 5.248v187.136c-16.32-5.248-32.64-10.432-54.4-10.432-81.408 0-141.12 67.584-141.12 140.352 0 83.2 65.152 140.352 141.184 140.352s141.184-67.584 141.184-140.352V0h179.2c0 135.168 108.608 244.288 238.912 244.288L960 421.12" fill="#000000" p-id="5829"></path></svg>