<?xml version="1.0" standalone="no"?><!DOCTYPE svg PUBLIC "-//W3C//DTD SVG 1.1//EN" "http://www.w3.org/Graphics/SVG/1.1/DTD/svg11.dtd"><svg t="1689069690121" class="icon" viewBox="0 0 1024 1024" version="1.1" xmlns="http://www.w3.org/2000/svg" p-id="2319" width="32" height="32" xmlns:xlink="http://www.w3.org/1999/xlink"><path d="M713.9 88.9H324.7c-48.8 0-88.5 39.6-88.5 88.5v707.5c0 47.4 57.1 71.1 90.6 37.7l155-155c20.7-20.7 54.3-20.7 75 0l155 155c33.4 33.4 90.6 9.7 90.6-37.7V177.3c0-48.8-39.7-88.4-88.5-88.4zM643 387.5L517.7 512.6c-6.9 6.9-15.9 10.4-24.9 10.4-9 0-18-3.5-24.9-10.4l-72.2-72c-13.8-13.8-13.8-36.3 0-50.1 13.8-13.8 36.3-13.8 50.1 0l47.1 47.1L593 337.5c13.8-13.8 36.3-13.8 50.1 0 13.7 13.7 13.7 36.2-0.1 50z" fill="#221714" p-id="2320"></path></svg>